<svg width="55" height="54" viewBox="0 0 55 54" fill="none" xmlns="http://www.w3.org/2000/svg">
<path d="M46.1272 26.1528L26.3113 9.22719C26.1592 9.09814 25.9652 9.02588 25.7606 9.02588H21.1187C20.7306 9.02588 20.5523 9.50077 20.846 9.74853L39.2142 25.4405H8.52007C8.28929 25.4405 8.10046 25.6263 8.10046 25.8534V28.9505C8.10046 29.1776 8.28929 29.3634 8.52007 29.3634H39.209L20.8407 45.0554C20.547 45.3083 20.7253 45.778 21.1135 45.778H25.9127C26.0124 45.778 26.112 45.7419 26.1855 45.6748L46.1272 28.6511C46.3088 28.4957 46.4544 28.3038 46.5542 28.0883C46.6539 27.8728 46.7056 27.6388 46.7056 27.4019C46.7056 27.1651 46.6539 26.9311 46.5542 26.7156C46.4544 26.5001 46.3088 26.3082 46.1272 26.1528V26.1528Z" fill="#130E79"/>
</svg>
