<svg width="57" height="138" viewBox="0 0 57 138" fill="none" xmlns="http://www.w3.org/2000/svg">
<g opacity="0.8">
<path opacity="0.8" d="M46.6494 137.794C51.867 137.794 56.0967 133.568 56.0967 128.355C56.0967 123.142 51.867 118.916 46.6494 118.916C41.4318 118.916 37.2021 123.142 37.2021 128.355C37.2021 133.568 41.4318 137.794 46.6494 137.794Z" fill="white"/>
<path opacity="0.8" d="M9.44721 137.794C14.6648 137.794 18.8945 133.568 18.8945 128.355C18.8945 123.142 14.6648 118.916 9.44721 118.916C4.22964 118.916 6.10352e-05 123.142 6.10352e-05 128.355C6.10352e-05 133.568 4.22964 137.794 9.44721 137.794Z" fill="white"/>
<path opacity="0.8" d="M46.6494 100.312C51.867 100.312 56.0967 96.0856 56.0967 90.8726C56.0967 85.6595 51.867 81.4336 46.6494 81.4336C41.4318 81.4336 37.2021 85.6595 37.2021 90.8726C37.2021 96.0856 41.4318 100.312 46.6494 100.312Z" fill="white"/>
<path opacity="0.8" d="M9.44721 100.312C14.6648 100.312 18.8945 96.0856 18.8945 90.8726C18.8945 85.6595 14.6648 81.4336 9.44721 81.4336C4.22964 81.4336 6.10352e-05 85.6595 6.10352e-05 90.8726C6.10352e-05 96.0856 4.22964 100.312 9.44721 100.312Z" fill="white"/>
<path opacity="0.8" d="M46.6494 56.3605C51.867 56.3605 56.0967 52.1345 56.0967 46.9214C56.0967 41.7084 51.867 37.4824 46.6494 37.4824C41.4318 37.4824 37.2021 41.7084 37.2021 46.9214C37.2021 52.1345 41.4318 56.3605 46.6494 56.3605Z" fill="white"/>
<path opacity="0.8" d="M9.44721 56.3605C14.6648 56.3605 18.8945 52.1345 18.8945 46.9214C18.8945 41.7084 14.6648 37.4824 9.44721 37.4824C4.22964 37.4824 6.10352e-05 41.7084 6.10352e-05 46.9214C6.10352e-05 52.1345 4.22964 56.3605 9.44721 56.3605Z" fill="white"/>
<path opacity="0.8" d="M46.6494 18.878C51.867 18.878 56.0967 14.6521 56.0967 9.43903C56.0967 4.226 51.867 0 46.6494 0C41.4318 0 37.2021 4.226 37.2021 9.43903C37.2021 14.6521 41.4318 18.878 46.6494 18.878Z" fill="white"/>
<path opacity="0.8" d="M9.44715 18.878C14.6647 18.878 18.8944 14.6521 18.8944 9.43903C18.8944 4.226 14.6647 0 9.44715 0C4.22958 0 0 4.226 0 9.43903C0 14.6521 4.22958 18.878 9.44715 18.878Z" fill="white"/>
</g>
</svg>
