<svg width="60" height="61" viewBox="0 0 60 61" fill="none" xmlns="http://www.w3.org/2000/svg">
<g clip-path="url(#clip0_124_4)">
<path fill-rule="evenodd" clip-rule="evenodd" d="M7.5 30.1477C7.5 41.0854 15.6244 50.1806 26.25 52.0249V36.1354H20.625V30.0249H26.25V25.1354C26.25 19.6354 29.8744 16.5811 35.0006 16.5811C36.6244 16.5811 38.3756 16.8249 39.9994 17.0687V22.6916H37.125C34.3744 22.6916 33.75 24.0354 33.75 25.7477V30.0249H39.75L38.7506 36.1354H33.75V52.0249C44.3756 50.1806 52.5 41.0872 52.5 30.1477C52.5 17.9799 42.375 8.0249 30 8.0249C17.625 8.0249 7.5 17.9799 7.5 30.1477Z" fill="white"/>
</g>
<defs>
<clipPath id="clip0_124_4">
<rect width="45" height="44" fill="white" transform="translate(7.5 8.0249)"/>
</clipPath>
</defs>
</svg>
