<svg width="61" height="61" viewBox="0 0 61 61" fill="none" xmlns="http://www.w3.org/2000/svg">
<g clip-path="url(#clip0_124_10)">
<path d="M35.0523 30.4701C35.0523 28.2543 33.1971 26.4513 30.9169 26.4513C28.6369 26.4513 26.7818 28.2544 26.7818 30.4701C26.7818 32.6865 28.6369 34.4892 30.9169 34.4892C33.1971 34.4892 35.0523 32.6865 35.0523 30.4701ZM41.1961 9.5498H20.2081C14.4257 9.5498 9.72131 14.1222 9.72131 19.7423V22.5822H25.1527C26.781 21.4549 28.7696 20.7889 30.9169 20.7889C33.0641 20.7889 35.053 21.4549 36.6814 22.5822H51.6828V19.7423C51.6828 14.1222 46.9785 9.5498 41.1961 9.5498ZM45.4431 19.2436C45.4431 19.8665 44.919 20.3761 44.2779 20.3761H40.6777C40.0367 20.3761 39.5125 19.8665 39.5125 19.2436V15.7442C39.5125 15.1214 40.0367 14.6117 40.6777 14.6117H44.2779C44.9189 14.6117 45.4431 15.1213 45.4431 15.7442V19.2436V19.2436ZM40.8782 30.4701C40.8782 35.809 36.4093 40.1516 30.9168 40.1516C25.4241 40.1516 20.9557 35.809 20.9557 30.4701C20.9557 29.0004 21.2963 27.6065 21.902 26.3571H9.72131V40.3079C9.72131 45.9284 14.4257 50.5004 20.2081 50.5004H41.1961C46.9785 50.5004 51.6829 45.9283 51.6829 40.3079V26.3571H39.9319C40.5376 27.6065 40.8782 29.0004 40.8782 30.4701Z" fill="white"/>
</g>
<defs>
<clipPath id="clip0_124_10">
<rect width="42" height="41" fill="white" transform="translate(9.70142 9.5249)"/>
</clipPath>
</defs>
</svg>
