<svg width="35" height="26" viewBox="0 0 35 26" fill="none" xmlns="http://www.w3.org/2000/svg">
<path d="M12.7465 0.10791L14.5705 3.37191C13.5465 4.77991 12.5865 6.34791 11.6905 8.07591C10.8585 9.80391 10.3785 11.5959 10.2505 13.4519L15.5305 14.4119V25.4519H0.842529V17.5799C0.842529 13.0359 1.89853 9.38791 4.01053 6.63591C6.18653 3.81991 9.09853 1.64391 12.7465 0.10791ZM31.7545 0.10791L33.5785 3.37191C32.5545 4.77991 31.5945 6.34791 30.6985 8.07591C29.8665 9.80391 29.3865 11.5959 29.2585 13.4519L34.5385 14.4119V25.4519H19.8505V17.5799C19.8505 13.0359 20.9065 9.38791 23.0185 6.63591C25.1945 3.81991 28.1065 1.64391 31.7545 0.10791Z" fill="#130E79"/>
</svg>
