<svg width="61" height="61" viewBox="0 0 61 61" fill="none" xmlns="http://www.w3.org/2000/svg">
<path d="M51.4727 19.6161V20.9771C51.4972 24.9298 50.7306 28.8479 49.2172 32.5044C47.7038 36.1609 45.4738 39.4829 42.6565 42.2779C39.8391 45.0729 36.4906 47.2853 32.8049 48.7867C29.1192 50.2881 25.1698 51.0487 21.1855 51.0243C15.387 51.0411 9.70704 49.396 4.82837 46.2869H7.46662C12.251 46.287 16.8966 44.6924 20.6579 41.7589C18.4284 41.7391 16.2625 41.0193 14.4709 39.7027C12.6793 38.3861 11.3541 36.5404 10.6853 34.4303C11.3571 34.5366 12.0364 34.5891 12.7167 34.5874C13.659 34.5806 14.5973 34.4665 15.5133 34.2471C13.1297 33.7644 10.9873 32.4795 9.44889 30.6098C7.91045 28.7402 7.07039 26.4006 7.07089 23.9871C8.5459 24.7943 10.1895 25.2512 11.8725 25.3219C10.3875 24.3474 9.17076 23.0209 8.33239 21.4626C7.49402 19.9042 7.06045 18.1631 7.07089 16.3967C7.07417 14.558 7.56554 12.7525 8.49554 11.162C11.1647 14.4276 14.4956 17.1005 18.2723 19.0077C22.049 20.9149 26.1874 22.0139 30.4194 22.2334C30.252 21.4413 30.1637 20.6348 30.1556 19.8255C30.0869 17.6711 30.6901 15.5481 31.883 13.7465C33.0758 11.9449 34.8001 10.5525 36.8203 9.75939C38.8406 8.96628 41.0584 8.81112 43.1709 9.31512C45.2833 9.81912 47.1875 10.9577 48.6234 12.5754C51.0111 12.0996 53.2967 11.2138 55.3773 9.95804C54.5828 12.4005 52.9116 14.4682 50.6812 15.7686C52.8016 15.5413 54.8745 14.994 56.8284 14.1458C55.3816 16.2422 53.5993 18.09 51.5519 19.6161H51.4727Z" fill="white"/>
</svg>
